<svg id="Layer_1" data-name="Layer 1" xmlns="http://www.w3.org/2000/svg" viewBox="0 0 215.17 215.17"><defs><style>.cls-1{fill:#045c87;}.cls-2{fill:#0c99ef;}.cls-3{fill:#1365e8;}.cls-4{fill:#5793ea;}</style></defs><title>icon-tubing</title><path class="cls-1" d="M171.76,65.74c-5.25-13.41-33.94-21.4-67.46-18.13C69.94,51,42.86,65,41.48,79.52c-.88,4.86-.41,11.3,1.71,19.84,3.73,15,32.07,25,68.26,21.43s61.8-18.83,62.82-34.25C174.9,77,174,70.33,171.76,65.74ZM107.56,81c-19.65,1.92-36-.37-36.42-5.11s15.09-10.15,34.74-12.07,36,.37,36.42,5.11S127.21,79.1,107.56,81Z" transform="translate(0.17 0.17)"/><path class="cls-1" d="M209.5,209.33H5.67V5.5H209.5Zm-198.83-5H204.5V10.5H10.67Z" transform="translate(0.17 0.17)"/><path class="cls-2" d="M168.76,62.74c-5.25-13.41-33.94-21.4-67.46-18.13C66.94,48,39.86,62,38.48,76.52c-.88,4.86-.41,11.3,1.71,19.84,3.73,15,32.07,25,68.26,21.43S170.25,99,171.27,83.55C171.9,74,171,67.33,168.76,62.74ZM104.56,78c-19.65,1.92-36-.37-36.42-5.11s15.09-10.15,34.74-12.07,36,.37,36.42,5.11S124.21,76.1,104.56,78Z" transform="translate(0.17 0.17)"/><path class="cls-3" d="M175,95s5.83-13.61,17.49-13.61c0,0,7.77,0,5.83,7.77s-9.72,1.94-9.72,1.94S182.73,89.17,175,95Z" transform="translate(0.17 0.17)"/><path class="cls-4" d="M178.83,94.83s4.25-4.12,8.55-2.32a2.31,2.31,0,0,1,1,3.77c-1.92,2.57-3.88-.78-3.88-.78S182.59,93.88,178.83,94.83Z" transform="translate(0.17 0.17)"/><path class="cls-2" d="M77.72,144.47H72v21.31H67.11V144.47H61.46v-3.94H77.72Z" transform="translate(0.17 0.17)"/><path class="cls-2" d="M87.65,163.61a5.55,5.55,0,0,1-1.85,1.88,4.67,4.67,0,0,1-2.45.65,4.62,4.62,0,0,1-3.93-1.9Q78,162.34,78,158.35V147h4.92V158.4a6.44,6.44,0,0,0,.49,2.9,1.55,1.55,0,0,0,1.44.9,3.2,3.2,0,0,0,1.43-.3,2.88,2.88,0,0,0,1-.89V147h4.94v18.76H87.95Z" transform="translate(0.17 0.17)"/><path class="cls-2" d="M110.09,157.83a10.41,10.41,0,0,1-1.57,6.05,5.25,5.25,0,0,1-4.6,2.25,4.27,4.27,0,0,1-2.3-.61,5.09,5.09,0,0,1-1.67-1.77l-.29,2H95.38v-27h4.92v9.88a4.76,4.76,0,0,1,1.55-1.44,4,4,0,0,1,2-.5,5.22,5.22,0,0,1,4.63,2.35,11.08,11.08,0,0,1,1.58,6.27Zm-4.91-2.56a8.7,8.7,0,0,0-.55-3.44,2,2,0,0,0-2-1.23,2.33,2.33,0,0,0-1.37.4,2.94,2.94,0,0,0-.94,1.13v8.77a2.33,2.33,0,0,0,.93,1,2.83,2.83,0,0,0,1.4.32,2,2,0,0,0,2-1.1,7.8,7.8,0,0,0,.53-3.25Z" transform="translate(0.17 0.17)"/><path class="cls-2" d="M117.78,142.49h-4.92v-3.76h4.92Zm0,23.28h-4.92V147h4.92Z" transform="translate(0.17 0.17)"/><path class="cls-2" d="M125.72,147l.21,2.58a6.25,6.25,0,0,1,1.92-2.16,4.58,4.58,0,0,1,6.19,1q1.34,1.8,1.34,5.67v11.63h-4.94V154.13a5,5,0,0,0-.55-2.73,1.91,1.91,0,0,0-1.69-.79A2.25,2.25,0,0,0,127,151a3,3,0,0,0-.94,1v13.87h-4.92V147Z" transform="translate(0.17 0.17)"/><path class="cls-2" d="M137.81,155.53a11.33,11.33,0,0,1,1.64-6.41,5.25,5.25,0,0,1,4.62-2.45,3.89,3.89,0,0,1,2.2.63,5.58,5.58,0,0,1,1.66,1.81l.31-2.1h4.28v18.39a7.82,7.82,0,0,1-2.14,5.82,8,8,0,0,1-5.87,2.12,9.45,9.45,0,0,1-2.58-.39,11.94,11.94,0,0,1-2.55-1l.87-3.8a8.87,8.87,0,0,0,2,.83,8.47,8.47,0,0,0,2.22.28,2.81,2.81,0,0,0,2.34-1,4.49,4.49,0,0,0,.78-2.85v-1.07a4.77,4.77,0,0,1-1.58,1.36,4.25,4.25,0,0,1-2,.46,5.32,5.32,0,0,1-4.59-2.28,10.14,10.14,0,0,1-1.63-6Zm4.92,2.32a7.16,7.16,0,0,0,.59,3.2,2,2,0,0,0,2,1.15,2.8,2.8,0,0,0,1.34-.31,2.57,2.57,0,0,0,1-.92v-8.89a3,3,0,0,0-.95-1.08,2.3,2.3,0,0,0-1.33-.38,2.06,2.06,0,0,0-2,1.35,8.78,8.78,0,0,0-.61,3.57Z" transform="translate(0.17 0.17)"/><path class="cls-2" d="M215,215H-.17V-.17H215ZM5.83,209H209V5.83H5.83Z" transform="translate(0.17 0.17)"/></svg>