<svg xmlns="http://www.w3.org/2000/svg" viewBox="0 0 100 100"><defs><style>.cls-1,.cls-2{fill:#fff;}.cls-2{font-size:19.65px;font-family: Roboto Condensed;font-weight:700;}</style></defs><title>icon-white-halloween</title><g id="event_nav" data-name="event nav"><path class="cls-1" d="M51.65,26s-.13-5.38-2.61-7.86l-5.37,1.24s3.46,3.16,1.94,6.94l2.6,1.32Z"/><path class="cls-1" d="M76.69,49.54C77.1,19.9,49.15,26.61,48.24,26.83c-.91-.22-28.86-6.93-28.46,22.71,0,0-2.47,25.16,28.46,19.81C79.17,74.7,76.69,49.54,76.69,49.54Zm-19.4-16.1,4.13,7.43H52.75ZM49.2,41l3.14,5.66h-6.6Zm-8.41-7.55,4.12,7.43H36.25ZM61.42,57V54.49H57.29V59s-1.23.41-4.95,1.24V56.14h-5v4.13A21.11,21.11,0,0,1,40.79,59V55.32l-4.54-.83V57S30.47,53.25,28,43.76c0,0,2.06,6.6,21.05,7a28.54,28.54,0,0,0,20.64-6.19A17.9,17.9,0,0,1,61.42,57Z"/><text class="cls-2" transform="translate(9.04 94.67)">Halloween</text></g></svg>