<svg id="Layer_1" data-name="Layer 1" xmlns="http://www.w3.org/2000/svg" viewBox="0 0 215.17 215.17"><defs><style>.cls-1{fill:#aa5705;}.cls-2{fill:#04a96d;}.cls-3{fill:#fd8906;}</style></defs><title>icon-halloween</title><path class="cls-1" d="M161.72,87.24c.73-53.54-49.76-41.43-51.4-41-1.64-.41-52.14-12.52-51.4,41,0,0-4.47,45.46,51.4,35.79C166.19,132.69,161.72,87.24,161.72,87.24Zm-35-29.08,7.46,13.42H118.47ZM112,71.79,117.73,82H105.8ZM96.85,58.16l7.46,13.42H88.65Zm37.28,42.5V96.18h-7.46v8.2s-2.24.75-8.95,2.24V99.17h-8.95v7.46a38.23,38.23,0,0,1-11.93-2.24V97.68l-8.2-1.49v4.47S78.21,93.95,73.74,76.8c0,0,3.73,11.93,38,12.67,0,0,20.13,3,37.28-11.18A32.32,32.32,0,0,1,134.13,100.66Z" transform="translate(0.13 0.17)"/><path class="cls-1" d="M209.5,209.33H5.67V5.5H209.5Zm-198.83-5H204.5V10.5H10.67Z" transform="translate(0.13 0.17)"/><path class="cls-2" d="M113.48,41.77s-.25-9.72-4.72-14.19l-9.69,2.24s6.25,5.7,3.5,12.54l4.7,2.37Z" transform="translate(0.13 0.17)"/><path class="cls-3" d="M158.72,84.24c.73-53.54-49.76-41.43-51.4-41-1.64-.41-52.14-12.52-51.4,41,0,0-4.47,45.46,51.4,35.79C163.19,129.69,158.72,84.24,158.72,84.24Zm-35-29.08,7.46,13.42H115.47ZM109,68.79,114.73,79H102.8ZM93.85,55.16l7.46,13.42H85.65Zm37.28,42.5V93.18h-7.46v8.2s-2.24.75-8.95,2.24V96.17h-8.95v7.46a38.23,38.23,0,0,1-11.93-2.24V94.68l-8.2-1.49v4.47S75.21,90.95,70.74,73.8c0,0,3.73,11.93,38,12.67,0,0,20.13,3,37.28-11.18A32.32,32.32,0,0,1,131.13,97.66Z" transform="translate(0.13 0.17)"/><path class="cls-3" d="M56.11,165.77H51.19V155.32H43.35v10.45H38.41V140.53h4.94v10.85h7.84V140.53h4.92Z" transform="translate(0.13 0.17)"/><path class="cls-3" d="M68.75,165.77a8.58,8.58,0,0,1-.37-1,8.42,8.42,0,0,1-.25-1.13,5.88,5.88,0,0,1-1.69,1.83,4,4,0,0,1-2.31.68,4.8,4.8,0,0,1-3.72-1.53,5.8,5.8,0,0,1-1.4-4.07,5.34,5.34,0,0,1,1.78-4.28,7.91,7.91,0,0,1,5.28-1.53h1.86V153.2a3.77,3.77,0,0,0-.49-2.11,1.66,1.66,0,0,0-1.48-.74,1.43,1.43,0,0,0-1.25.59,3,3,0,0,0-.42,1.72l-4.77,0-.05-.1a5.14,5.14,0,0,1,1.81-4.16,7.17,7.17,0,0,1,5-1.72A6.7,6.7,0,0,1,71,148.38a6.33,6.33,0,0,1,1.83,4.86v7.59a16.35,16.35,0,0,0,.19,2.58,14.09,14.09,0,0,0,.59,2.36Zm-3.21-3.35a2.53,2.53,0,0,0,1.38-.4,3,3,0,0,0,1-1v-3.45H66.06a1.79,1.79,0,0,0-1.63.78,3.58,3.58,0,0,0-.5,2,2.51,2.51,0,0,0,.43,1.53A1.38,1.38,0,0,0,65.54,162.43Z" transform="translate(0.13 0.17)"/><path class="cls-3" d="M81.13,165.77H76.21v-27h4.92Z" transform="translate(0.13 0.17)"/><path class="cls-3" d="M89.71,165.77H84.79v-27h4.92Z" transform="translate(0.13 0.17)"/><path class="cls-3" d="M92.55,155.25a9.33,9.33,0,0,1,2-6.18,7.76,7.76,0,0,1,11.23,0,9.3,9.3,0,0,1,2,6.18v2.32a9.25,9.25,0,0,1-2,6.19,7.82,7.82,0,0,1-11.23,0,9.28,9.28,0,0,1-2-6.19Zm4.91,2.32a7.83,7.83,0,0,0,.61,3.4,2.16,2.16,0,0,0,2.12,1.23,2.13,2.13,0,0,0,2.07-1.24,7.75,7.75,0,0,0,.62-3.39v-2.33a7.77,7.77,0,0,0-.62-3.38,2.36,2.36,0,0,0-4.18,0,7.78,7.78,0,0,0-.62,3.37Z" transform="translate(0.13 0.17)"/><path class="cls-3" d="M124.09,157.66l.1,0L125.94,147h4.56l-3.85,18.76h-4.11l-2.62-10.11h-.1l-2.62,10.11H113.1L109.21,147h4.59l1.75,10.68h.1L118.28,147h3.19Z" transform="translate(0.13 0.17)"/><path class="cls-3" d="M139.88,166.14a7.16,7.16,0,0,1-5.62-2.32,8.46,8.46,0,0,1-2.08-5.86v-2.63a9.68,9.68,0,0,1,1.93-6.22,6.46,6.46,0,0,1,5.35-2.43,6.22,6.22,0,0,1,5.1,2.2,9.19,9.19,0,0,1,1.8,6v3h-9.28V158a5.19,5.19,0,0,0,.84,3.05,2.9,2.9,0,0,0,2.54,1.2,6.78,6.78,0,0,0,2.25-.31,11.86,11.86,0,0,0,2.06-1L146,164a7.41,7.41,0,0,1-2.59,1.54A10.07,10.07,0,0,1,139.88,166.14Zm-.42-15.53a1.83,1.83,0,0,0-1.73,1.08,7,7,0,0,0-.62,2.91h4.42v-.7a5,5,0,0,0-.49-2.43A1.67,1.67,0,0,0,139.47,150.6Z" transform="translate(0.13 0.17)"/><path class="cls-3" d="M156.14,166.14a7.16,7.16,0,0,1-5.62-2.32,8.46,8.46,0,0,1-2.08-5.86v-2.63a9.68,9.68,0,0,1,1.93-6.22,6.46,6.46,0,0,1,5.35-2.43,6.22,6.22,0,0,1,5.1,2.2,9.19,9.19,0,0,1,1.8,6v3h-9.28V158a5.19,5.19,0,0,0,.84,3.05,2.9,2.9,0,0,0,2.54,1.2,6.78,6.78,0,0,0,2.25-.31,11.86,11.86,0,0,0,2.06-1L162.3,164a7.41,7.41,0,0,1-2.59,1.54A10.07,10.07,0,0,1,156.14,166.14Zm-.42-15.53a1.83,1.83,0,0,0-1.73,1.08,7,7,0,0,0-.62,2.91h4.42v-.7a5,5,0,0,0-.49-2.43A1.67,1.67,0,0,0,155.73,150.6Z" transform="translate(0.13 0.17)"/><path class="cls-3" d="M169.62,147l.21,2.58a6.25,6.25,0,0,1,1.92-2.16,4.58,4.58,0,0,1,6.19,1q1.34,1.8,1.34,5.67v11.63h-4.94V154.13a5,5,0,0,0-.55-2.73,1.91,1.91,0,0,0-1.69-.79,2.25,2.25,0,0,0-1.21.35,3,3,0,0,0-.94,1v13.87H165V147Z" transform="translate(0.13 0.17)"/><path class="cls-3" d="M215,215H-.13V-.17H215ZM5.87,209H209V5.83H5.87Z" transform="translate(0.13 0.17)"/></svg>