<svg id="Layer_1" data-name="Layer 1" xmlns="http://www.w3.org/2000/svg" viewBox="0 0 71.53 75.95"><defs><style>.cls-1{fill:#fff;}</style></defs><title>icon-white-nye</title><path class="cls-1" d="M20,83.94H17.37l-4.21-8.81-.06,0v8.79H10.4V70.16h2.7L17.31,79l.06,0V70.16H20Z" transform="translate(-10.4 -8.19)"/><path class="cls-1" d="M26.12,76.07h.06l2.3-5.91H31.4L27.46,79v4.9H24.78V78.87l-3.87-8.71h2.94Z" transform="translate(-10.4 -8.19)"/><path class="cls-1" d="M39.84,77.89H35.21v3.9h5.44v2.15H32.52V70.16h8.12v2.15H35.21v3.44h4.63Z" transform="translate(-10.4 -8.19)"/><path class="cls-1" d="M46.3,83.94V70.16h4.06a5.23,5.23,0,0,1,3.33.95,3.38,3.38,0,0,1,1.2,2.82,3.46,3.46,0,0,1-.44,1.75,2.69,2.69,0,0,1-1.31,1.14,2.44,2.44,0,0,1,1.61,1.11,3.76,3.76,0,0,1,.52,2,3.84,3.84,0,0,1-1.13,3,4.68,4.68,0,0,1-3.24,1ZM49,76h1.49a1.73,1.73,0,0,0,1.26-.48,1.84,1.84,0,0,0,.44-1.32,1.93,1.93,0,0,0-.45-1.42,1.87,1.87,0,0,0-1.37-.45H49Zm0,1.88v3.93h1.9a1.62,1.62,0,0,0,1.27-.47,2.07,2.07,0,0,0,.42-1.41,2.69,2.69,0,0,0-.36-1.51,1.3,1.3,0,0,0-1.16-.53Z" transform="translate(-10.4 -8.19)"/><path class="cls-1" d="M61.87,83.94a4.74,4.74,0,0,1-.34-1.17,3.2,3.2,0,0,1-.92,1,2.18,2.18,0,0,1-1.26.37,2.62,2.62,0,0,1-2-.83,3.17,3.17,0,0,1-.76-2.22,2.91,2.91,0,0,1,1-2.34,4.32,4.32,0,0,1,2.88-.83h1v-.83a2.06,2.06,0,0,0-.27-1.15.91.91,0,0,0-.81-.4.78.78,0,0,0-.68.32,1.62,1.62,0,0,0-.23.94h-2.6l0-.06a2.81,2.81,0,0,1,1-2.27,3.91,3.91,0,0,1,2.73-.94,3.65,3.65,0,0,1,2.6.93,3.45,3.45,0,0,1,1,2.65v4.15a9,9,0,0,0,.1,1.41,7.61,7.61,0,0,0,.32,1.29Zm-1.75-1.83a1.38,1.38,0,0,0,.75-.22,1.61,1.61,0,0,0,.54-.56V79.46h-1a1,1,0,0,0-.89.43A2,2,0,0,0,59.24,81a1.37,1.37,0,0,0,.24.83A.76.76,0,0,0,60.12,82.11Z" transform="translate(-10.4 -8.19)"/><path class="cls-1" d="M70.27,81.26a1,1,0,0,0-.34-.75,5.74,5.74,0,0,0-1.31-.78,6.9,6.9,0,0,1-2.31-1.31,2.49,2.49,0,0,1-.77-1.89,2.76,2.76,0,0,1,1-2.13,3.78,3.78,0,0,1,2.62-.88,3.92,3.92,0,0,1,2.72.91,2.87,2.87,0,0,1,1,2.32l0,.06H70.22a1.75,1.75,0,0,0-.26-1,.92.92,0,0,0-.81-.38,1,1,0,0,0-.74.29,1,1,0,0,0,0,1.44,6.08,6.08,0,0,0,1.32.76,6.38,6.38,0,0,1,2.38,1.3,2.8,2.8,0,0,1-.27,4.11,4.24,4.24,0,0,1-2.73.83,3.78,3.78,0,0,1-2.8-1,3,3,0,0,1-1-2.33l0-.06h2.46a1.67,1.67,0,0,0,.38,1.17,1.34,1.34,0,0,0,1,.36A1.16,1.16,0,0,0,70,82,1,1,0,0,0,70.27,81.26Z" transform="translate(-10.4 -8.19)"/><path class="cls-1" d="M76.83,74.92a3.11,3.11,0,0,1,1-1A2.18,2.18,0,0,1,79,73.51a2.49,2.49,0,0,1,2.14,1.08,5.79,5.79,0,0,1,.78,3.35v6h-2.7v-6a3.67,3.67,0,0,0-.3-1.76,1,1,0,0,0-.93-.49,1.34,1.34,0,0,0-.67.17,1.53,1.53,0,0,0-.5.46v7.65H74.14V69.18h2.69Z" transform="translate(-10.4 -8.19)"/><path class="cls-1" d="M47.89,60.22V37.31A19.15,19.15,0,0,0,51,34.46c6.57-11,1.36-26.26,1.36-26.26H41.57s-5.2,15.24,1.36,26.26A19.15,19.15,0,0,0,46,37.31V60.22l-7.19,1.11H55.08Z" transform="translate(-10.4 -8.19)"/></svg>