<svg id="Layer_1" data-name="Layer 1" xmlns="http://www.w3.org/2000/svg" viewBox="0 0 85.51 71.67"><defs><style>.cls-1{fill:#fff;}</style></defs><title>icon-white-tubing</title><path class="cls-1" d="M75.76,20.77C72.86,13.35,57,8.93,38.42,10.74c-19,1.86-34,9.6-34.77,17.66-.49,2.69-.23,6.26.95,11,2.06,8.3,17.75,13.82,37.79,11.86s34.21-10.42,34.78-19C77.5,27,77,23.31,75.76,20.77ZM40.23,29.23C29.35,30.3,20.32,29,20.07,26.4s8.35-5.62,19.23-6.68,19.9.2,20.16,2.83S51.11,28.17,40.23,29.23Z" transform="translate(-3.41 -10.33)"/><path class="cls-1" d="M78.13,37.86s2.66-6.21,8-6.21c0,0,3.55,0,2.66,3.55s-4.44.89-4.44.89S81.68,35.2,78.13,37.86Z" transform="translate(-3.41 -10.33)"/><path class="cls-1" d="M79.12,39.09s2.35-2.28,4.73-1.28a1.28,1.28,0,0,1,.53,2.09c-1.06,1.42-2.15-.43-2.15-.43A3.5,3.5,0,0,0,79.12,39.09Z" transform="translate(-3.41 -10.33)"/><path class="cls-1" d="M25.37,66H22.22V77.81H19.5V66H16.37V63.83h9Z" transform="translate(-3.41 -10.33)"/><path class="cls-1" d="M30.87,76.61a3.06,3.06,0,0,1-1,1,2.6,2.6,0,0,1-1.36.36A2.56,2.56,0,0,1,26.31,77a5.47,5.47,0,0,1-.78-3.26V67.42h2.73v6.3a3.58,3.58,0,0,0,.27,1.6.86.86,0,0,0,.8.5,1.77,1.77,0,0,0,.79-.17,1.59,1.59,0,0,0,.58-.5V67.42h2.74V77.81H31Z" transform="translate(-3.41 -10.33)"/><path class="cls-1" d="M43.29,73.41a5.76,5.76,0,0,1-.87,3.35A2.91,2.91,0,0,1,39.87,78a2.37,2.37,0,0,1-1.27-.34,2.82,2.82,0,0,1-.93-1l-.16,1.11H35.15v-15h2.73v5.47a2.62,2.62,0,0,1,.86-.8,2.24,2.24,0,0,1,1.12-.28,2.89,2.89,0,0,1,2.56,1.3A6.13,6.13,0,0,1,43.29,72ZM40.57,72a4.83,4.83,0,0,0-.3-1.9,1.11,1.11,0,0,0-1.12-.68,1.29,1.29,0,0,0-.76.22,1.63,1.63,0,0,0-.52.63v4.85a1.28,1.28,0,0,0,.51.53,1.57,1.57,0,0,0,.77.18,1.12,1.12,0,0,0,1.12-.61,4.32,4.32,0,0,0,.29-1.8Z" transform="translate(-3.41 -10.33)"/><path class="cls-1" d="M47.55,64.92H44.82V62.84h2.73Zm0,12.89H44.82V67.42h2.73Z" transform="translate(-3.41 -10.33)"/><path class="cls-1" d="M51.94,67.42l.12,1.43a3.47,3.47,0,0,1,1.06-1.2,2.54,2.54,0,0,1,3.43.57,5.29,5.29,0,0,1,.74,3.14v6.44H54.55V71.36a2.79,2.79,0,0,0-.3-1.51,1.06,1.06,0,0,0-.94-.44,1.24,1.24,0,0,0-.67.19,1.63,1.63,0,0,0-.52.53v7.68H49.4V67.42Z" transform="translate(-3.41 -10.33)"/><path class="cls-1" d="M58.63,72.14a6.27,6.27,0,0,1,.91-3.55,2.9,2.9,0,0,1,2.56-1.35,2.15,2.15,0,0,1,1.22.35,3.08,3.08,0,0,1,.92,1l.17-1.16h2.37V77.6a4.33,4.33,0,0,1-1.19,3.22A4.41,4.41,0,0,1,62.34,82a5.2,5.2,0,0,1-1.43-.22,6.58,6.58,0,0,1-1.41-.58L60,79.1a4.89,4.89,0,0,0,1.11.46,4.68,4.68,0,0,0,1.23.15,1.56,1.56,0,0,0,1.3-.54,2.49,2.49,0,0,0,.43-1.58V77a2.65,2.65,0,0,1-.87.75,2.36,2.36,0,0,1-1.1.25,3,3,0,0,1-2.54-1.26,5.62,5.62,0,0,1-.9-3.33Zm2.73,1.28a4,4,0,0,0,.33,1.77,1.13,1.13,0,0,0,1.09.64,1.55,1.55,0,0,0,.74-.17,1.42,1.42,0,0,0,.53-.51V70.23a1.68,1.68,0,0,0-.52-.6,1.28,1.28,0,0,0-.73-.21,1.14,1.14,0,0,0-1.1.75,4.85,4.85,0,0,0-.34,2Z" transform="translate(-3.41 -10.33)"/></svg>