<svg id="Layer_1" data-name="Layer 1" xmlns="http://www.w3.org/2000/svg" viewBox="0 0 85.33 77.39"><defs><style>.cls-1{fill:#fff;}</style></defs><title>icon-white-americrawl</title><polygon class="cls-1" points="42.58 0 49.59 19.66 70.65 19.66 53.81 32.29 59.42 51.94 42.58 39.31 27.13 51.94 31.34 32.29 15.9 19.66 35.56 19.66 42.58 0"/><path class="cls-1" d="M10.69,81.68H7l-.75,3H3.5l3.94-14h2.84l3.92,14H11.45ZM7.56,79.5h2.57L8.88,74.56H8.82Z" transform="translate(-3.5 -7.47)"/><path class="cls-1" d="M17.67,74.28l.11,1.32a3.1,3.1,0,0,1,1-1.12,2.62,2.62,0,0,1,1.43-.39,2.3,2.3,0,0,1,1.37.42,2.57,2.57,0,0,1,.89,1.27,3.25,3.25,0,0,1,1-1.25A2.52,2.52,0,0,1,25,74.09a2.35,2.35,0,0,1,2,1.06,5.68,5.68,0,0,1,.74,3.24v6.28H25.06V78.38a3.69,3.69,0,0,0-.26-1.66.86.86,0,0,0-.81-.46,1.14,1.14,0,0,0-.7.23,1.76,1.76,0,0,0-.51.63l0,.36c0,.12,0,.24,0,.37v6.8H20.1V78.38a3.62,3.62,0,0,0-.26-1.65.88.88,0,0,0-.82-.46,1.21,1.21,0,0,0-.67.19,1.64,1.64,0,0,0-.5.52v7.69H15.13V74.28Z" transform="translate(-3.5 -7.47)"/><path class="cls-1" d="M33.62,84.86a4,4,0,0,1-3.11-1.29,4.68,4.68,0,0,1-1.15-3.24V78.88a5.36,5.36,0,0,1,1.07-3.45,3.58,3.58,0,0,1,3-1.34,3.44,3.44,0,0,1,2.82,1.22,5.09,5.09,0,0,1,1,3.32V80.3H32.07v0A2.87,2.87,0,0,0,32.54,82a1.6,1.6,0,0,0,1.41.66,3.75,3.75,0,0,0,1.25-.17,6.5,6.5,0,0,0,1.14-.58L37,83.67a4.12,4.12,0,0,1-1.43.85A5.59,5.59,0,0,1,33.62,84.86Zm-.23-8.6a1,1,0,0,0-1,.6,3.87,3.87,0,0,0-.35,1.61h2.45v-.39a2.77,2.77,0,0,0-.27-1.34A.93.93,0,0,0,33.39,76.27Z" transform="translate(-3.5 -7.47)"/><path class="cls-1" d="M43.49,76.76l-1,0a1.16,1.16,0,0,0-.71.21,1.34,1.34,0,0,0-.44.59v7.12H38.58V74.28h2.54l.11,1.39,0,0a2.82,2.82,0,0,1,.7-1.18,1.46,1.46,0,0,1,1-.43,2.44,2.44,0,0,1,.39,0l.36.08Z" transform="translate(-3.5 -7.47)"/><path class="cls-1" d="M47.72,71.77H45V69.69h2.73Zm0,12.89H45V74.28h2.73Z" transform="translate(-3.5 -7.47)"/><path class="cls-1" d="M53.41,82.69a1,1,0,0,0,.84-.41,2.1,2.1,0,0,0,.28-1.19H57l0,.06a3.51,3.51,0,0,1-3.63,3.72,3.78,3.78,0,0,1-3.09-1.31,5.18,5.18,0,0,1-1.08-3.4V78.82a5.24,5.24,0,0,1,1.08-3.4,3.73,3.73,0,0,1,3.08-1.33,3.46,3.46,0,0,1,2.68,1.08,4.07,4.07,0,0,1,1,2.93l0,0H54.53a2.84,2.84,0,0,0-.28-1.37.92.92,0,0,0-.86-.52,1.12,1.12,0,0,0-1.12.69A4.65,4.65,0,0,0,52,78.81v1.34A4.61,4.61,0,0,0,52.27,82,1.14,1.14,0,0,0,53.41,82.69Z" transform="translate(-3.5 -7.47)"/><path class="cls-1" d="M63.25,76.76l-1,0a1.16,1.16,0,0,0-.71.21,1.34,1.34,0,0,0-.44.59v7.12H58.35V74.28h2.54L61,75.67l0,0a2.83,2.83,0,0,1,.7-1.18,1.46,1.46,0,0,1,1-.43,2.42,2.42,0,0,1,.39,0l.36.08Z" transform="translate(-3.5 -7.47)"/><path class="cls-1" d="M69.69,84.66a4.83,4.83,0,0,1-.35-1.19,3.24,3.24,0,0,1-.94,1,2.21,2.21,0,0,1-1.28.38A2.65,2.65,0,0,1,65.07,84a3.21,3.21,0,0,1-.77-2.25,3,3,0,0,1,1-2.37,4.38,4.38,0,0,1,2.92-.84h1V77.7A2.09,2.09,0,0,0,69,76.54a.92.92,0,0,0-.82-.41.79.79,0,0,0-.69.33,1.64,1.64,0,0,0-.23,1H64.58l0-.06a2.84,2.84,0,0,1,1-2.3,4,4,0,0,1,2.77-1A3.71,3.71,0,0,1,71,75a3.5,3.5,0,0,1,1,2.69v4.2a9.1,9.1,0,0,0,.11,1.43,7.86,7.86,0,0,0,.33,1.31Zm-1.78-1.85a1.4,1.4,0,0,0,.76-.22,1.64,1.64,0,0,0,.55-.57V80.11h-1a1,1,0,0,0-.9.43A2,2,0,0,0,67,81.64a1.39,1.39,0,0,0,.24.84A.76.76,0,0,0,67.92,82.81Z" transform="translate(-3.5 -7.47)"/><path class="cls-1" d="M81.28,80.17h.06l1-5.88h2.52L82.7,84.66H80.42L79,79.07h-.06l-1.45,5.6H75.19L73,74.28h2.54l1,5.91h.06l1.45-5.91h1.77Z" transform="translate(-3.5 -7.47)"/><path class="cls-1" d="M88.83,84.66H86.1v-15h2.73Z" transform="translate(-3.5 -7.47)"/></svg>