<svg id="Layer_1" data-name="Layer 1" xmlns="http://www.w3.org/2000/svg" viewBox="0 0 57.55 74.01"><defs><style>.cls-1{fill:#fff;}</style></defs><title>icon-white-st-pats</title><path class="cls-1" d="M48,34.55l0,0,0-.23Z" transform="translate(-17.39 -9.16)"/><path class="cls-1" d="M69,27.71c-4.82-4.07-11.13-2.25-15.6,0,4.17-3.29,8.72-8.43,6.07-13.89C55,4.59,47.83,12.54,47.83,12.54,38.46,4.07,35,14.2,35,14.2c-1.2,5.24,1.89,9.49,5.34,12.45-4.16-1.64-9.22-2.34-13.25,1.06,0,0-7.42,7.72,4.39,12.16,0,0-3.78,10,6.48,9.79,5.69-.13,8.23-5.78,9.36-10.79.16,12-6,16-6,16,4.23.51,5.77,2.82,5.77,2.82a48.53,48.53,0,0,0,2.37-16.45c1.36,4.27,3.92,8.32,8.73,8.43,10.26.24,6.48-9.79,6.48-9.79C76.44,35.42,69,27.71,69,27.71ZM48,34.55l0-.25,0,.23Z" transform="translate(-17.39 -9.16)"/><path class="cls-1" d="M24,79.32A1.87,1.87,0,0,0,23.54,78a4.3,4.3,0,0,0-1.49-.94,9.81,9.81,0,0,1-3.27-1.72,3.42,3.42,0,0,1-1.09-2.7A3.51,3.51,0,0,1,19,69.87a4.81,4.81,0,0,1,3.23-1.08A4.48,4.48,0,0,1,25.44,70a3.92,3.92,0,0,1,1.21,3l0,.06H24a2.4,2.4,0,0,0-.48-1.55,1.86,1.86,0,0,0-2.62-.1,1.76,1.76,0,0,0-.46,1.24,1.44,1.44,0,0,0,.51,1.14,7.16,7.16,0,0,0,1.77,1,7.43,7.43,0,0,1,3,1.7,3.83,3.83,0,0,1,1,2.79,3.53,3.53,0,0,1-1.21,2.84,4.8,4.8,0,0,1-3.21,1A5.38,5.38,0,0,1,18.81,82a3.91,3.91,0,0,1-1.42-3.34l0-.06h2.66a2.62,2.62,0,0,0,.55,1.86,2.2,2.2,0,0,0,1.65.57,1.65,1.65,0,0,0,1.28-.46A1.79,1.79,0,0,0,24,79.32Z" transform="translate(-17.39 -9.16)"/><path class="cls-1" d="M31.47,70v2.58h1.44v2H31.47v5.21a1.7,1.7,0,0,0,.18.91.57.57,0,0,0,.5.27l.42,0,.38-.08.21,2.07a5.47,5.47,0,0,1-.83.19,6.26,6.26,0,0,1-.89.06,2.5,2.5,0,0,1-2-.81,3.91,3.91,0,0,1-.7-2.58V74.56H27.52v-2h1.23V70Z" transform="translate(-17.39 -9.16)"/><path class="cls-1" d="M41.66,77.95v5H38.93V69h4.86a4.48,4.48,0,1,1,0,9Zm0-2.18h2.12a1.54,1.54,0,0,0,1.33-.64,2.74,2.74,0,0,0,.46-1.64,2.85,2.85,0,0,0-.46-1.66,1.52,1.52,0,0,0-1.34-.66H41.66Z" transform="translate(-17.39 -9.16)"/><path class="cls-1" d="M54.82,83a4.83,4.83,0,0,1-.35-1.19,3.24,3.24,0,0,1-.94,1,2.21,2.21,0,0,1-1.28.38,2.65,2.65,0,0,1-2.06-.84,3.21,3.21,0,0,1-.77-2.25,3,3,0,0,1,1-2.37,4.38,4.38,0,0,1,2.92-.84h1V76a2.09,2.09,0,0,0-.27-1.17.92.92,0,0,0-.82-.41.79.79,0,0,0-.69.33,1.64,1.64,0,0,0-.23,1H49.7l0-.06a2.85,2.85,0,0,1,1-2.3,4,4,0,0,1,2.77-1,3.71,3.71,0,0,1,2.63.95,3.5,3.5,0,0,1,1,2.69v4.2a9.1,9.1,0,0,0,.11,1.43A7.76,7.76,0,0,0,57.53,83ZM53,81.12a1.4,1.4,0,0,0,.76-.22,1.64,1.64,0,0,0,.55-.57V78.42h-1a1,1,0,0,0-.9.43,2,2,0,0,0-.28,1.09,1.39,1.39,0,0,0,.24.84A.76.76,0,0,0,53,81.12Z" transform="translate(-17.39 -9.16)"/><path class="cls-1" d="M62.06,70v2.58H63.5v2H62.06v5.21a1.7,1.7,0,0,0,.18.91.57.57,0,0,0,.5.27l.42,0,.38-.08.21,2.07a5.5,5.5,0,0,1-.83.19,6.27,6.27,0,0,1-.89.06,2.51,2.51,0,0,1-2-.81,3.91,3.91,0,0,1-.7-2.58V74.56H58.11v-2h1.23V70Z" transform="translate(-17.39 -9.16)"/><path class="cls-1" d="M67.34,69.84l-1.4,3.3H64.63l.47-3.3V68h2.25Z" transform="translate(-17.39 -9.16)"/><path class="cls-1" d="M72.3,80.25a1,1,0,0,0-.35-.76,5.84,5.84,0,0,0-1.32-.79,7,7,0,0,1-2.35-1.33,2.52,2.52,0,0,1-.78-1.92,2.8,2.8,0,0,1,1-2.16,3.83,3.83,0,0,1,2.65-.9,4,4,0,0,1,2.75.92,2.9,2.9,0,0,1,1,2.35l0,.06H72.25a1.78,1.78,0,0,0-.27-1,.94.94,0,0,0-.83-.38,1,1,0,0,0-.75.3,1,1,0,0,0,0,1.46,6.2,6.2,0,0,0,1.33.77,6.49,6.49,0,0,1,2.42,1.32,2.84,2.84,0,0,1-.27,4.17,4.3,4.3,0,0,1-2.77.84,3.84,3.84,0,0,1-2.84-1,3.09,3.09,0,0,1-1-2.36l0-.06h2.5a1.69,1.69,0,0,0,.38,1.19,1.36,1.36,0,0,0,1,.37A1.18,1.18,0,0,0,72,81,1,1,0,0,0,72.3,80.25Z" transform="translate(-17.39 -9.16)"/></svg>