<svg xmlns="http://www.w3.org/2000/svg" viewBox="0 0 100 100"><defs><style>.cls-1,.cls-2{fill:#fff;}.cls-2{font-size:19.65px;font-family: Roboto Condensed;font-weight:700;}.cls-3{letter-spacing:-0.01em;}.cls-4{letter-spacing:0.01em;}.cls-5{letter-spacing:-0.11em;}</style></defs><title>icon-white-st-pats</title><g id="event_nav" data-name="event nav"><path class="cls-1" d="M51.89,46.26l0,0,0-.23A2.29,2.29,0,0,1,51.89,46.26Z"/><path class="cls-1" d="M72.88,39.41c-4.82-4.06-11.13-2.25-15.6,0C61.45,36.12,66,31,63.35,25.53c-4.49-9.24-11.67-1.29-11.67-1.29-9.36-8.46-12.82,1.67-12.82,1.67-1.2,5.24,1.89,9.49,5.34,12.45C40,36.72,35,36,31,39.41c0,0-7.42,7.72,4.39,12.17,0,0-3.78,10,6.48,9.79,5.69-.14,8.23-5.79,9.36-10.79.16,12-6,16-6,16,4.23.51,5.77,2.82,5.77,2.82a48.44,48.44,0,0,0,2.37-16.44c1.36,4.27,3.92,8.31,8.73,8.43,10.26.23,6.48-9.79,6.48-9.79C80.3,47.13,72.88,39.41,72.88,39.41Zm-21,6.85a2.29,2.29,0,0,0,0-.25l0,.23Z"/><text class="cls-2" transform="translate(20.56 94.67)">St <tspan class="cls-3" x="21.18" y="0">P</tspan><tspan x="32.26" y="0">a</tspan><tspan class="cls-4" x="41.51" y="0">t</tspan><tspan class="cls-5" x="47.77" y="0">’</tspan><tspan x="49.96" y="0">s</tspan></text></g></svg>