<svg xmlns="http://www.w3.org/2000/svg" viewBox="0 0 100 100"><defs><style>.cls-1,.cls-2{fill:#fff;}.cls-2{font-size:19.65px;font-family: Roboto Condensed;font-weight:700;}.cls-3{letter-spacing:-0.03em;}</style></defs><title>icon-white-tubing</title><g id="event_nav" data-name="event nav"><path class="cls-1" d="M79.6,37.64c-2.91-7.42-18.79-11.85-37.35-10-19,1.86-34,9.6-34.77,17.66-.49,2.68-.23,6.25.95,11,2.06,8.3,17.75,13.82,37.78,11.86S80.42,57.69,81,49.16C81.34,43.88,80.82,40.18,79.6,37.64ZM44.06,46.1c-10.88,1.06-19.9-.2-20.16-2.83s8.35-5.62,19.23-6.68,19.91.2,20.16,2.83S54.94,45,44.06,46.1Z"/><path class="cls-1" d="M82,54.73s2.66-6.21,8-6.21c0,0,3.55,0,2.66,3.55s-4.44.89-4.44.89S85.51,52.07,82,54.73Z"/><path class="cls-1" d="M83,56s2.35-2.28,4.73-1.29a1.28,1.28,0,0,1,.53,2.09c-1.06,1.42-2.15-.43-2.15-.43A3.49,3.49,0,0,0,83,56Z"/><text class="cls-2" transform="translate(19.92 94.67)"><tspan class="cls-3">T</tspan><tspan x="10.05" y="0">ubing</tspan></text></g></svg>