<svg id="Layer_1" data-name="Layer 1" xmlns="http://www.w3.org/2000/svg" xmlns:xlink="http://www.w3.org/1999/xlink" viewBox="0 0 215.17 215.17"><defs><style>.cls-1{fill:none;}.cls-2{fill:#fff;}.cls-3{fill:#f9e9b9;}.cls-4{clip-path:url(#clip-path);}.cls-5{fill:#b3b3b3;}.cls-6{fill:#b4b4b4;}.cls-7{fill:#b5b5b5;}.cls-8{fill:#b6b6b6;}.cls-9{fill:#b7b7b7;}.cls-10{fill:#b8b8b8;}.cls-11{fill:#b9b9b9;}.cls-12{fill:#bababa;}.cls-13{fill:#bbb;}.cls-14{fill:#bcbcbc;}.cls-15{fill:#bdbdbd;}.cls-16{fill:#bebebe;}.cls-17{fill:#bfbfbf;}.cls-18{fill:silver;}.cls-19{fill:#c1c1c1;}.cls-20{fill:#c2c2c2;}.cls-21{fill:#c3c3c3;}.cls-22{fill:#c4c4c4;}.cls-23{fill:#c5c5c5;}.cls-24{fill:#c6c6c6;}.cls-25{fill:#c7c7c7;}.cls-26{fill:#c8c8c8;}.cls-27{fill:#c9c9c9;}.cls-28{fill:#cacaca;}.cls-29{fill:#cbcbcb;}.cls-30{fill:#ccc;}.cls-31{fill:#cdcdcd;}.cls-32{fill:#cecece;}.cls-33{fill:#cfcfcf;}.cls-34{fill:#d0d0d0;}.cls-35{fill:#d1d1d1;}.cls-36{fill:#d2d2d2;}.cls-37{fill:#d3d3d3;}.cls-38{fill:#d4d4d4;}.cls-39{fill:#d5d5d5;}.cls-40{fill:#d6d6d6;}.cls-41{fill:#d7d7d7;}.cls-42{fill:#d8d8d8;}.cls-43{fill:#dadada;}.cls-44{fill:#dbdbdb;}.cls-45{fill:#dcdcdc;}.cls-46{fill:#ddd;}.cls-47{fill:#dedede;}.cls-48{fill:#dfdfdf;}.cls-49{fill:#e0e0e0;}.cls-50{fill:#e1e1e1;}.cls-51{fill:#e2e2e2;}.cls-52{fill:#e3e3e3;}.cls-53{fill:#e4e4e4;}.cls-54{fill:#e5e5e5;}.cls-55{fill:#e6e6e6;}.cls-56{fill:#e7e7e7;}.cls-57{fill:#e8e8e8;}.cls-58{fill:#e9e9e9;}.cls-59{fill:#eaeaea;}.cls-60{fill:#ebebeb;}.cls-61{fill:#ececec;}.cls-62{fill:#ededed;}.cls-63{fill:#eee;}.cls-64{fill:#efefef;}.cls-65{fill:#f0f0f0;}.cls-66{fill:#f1f1f1;}.cls-67{fill:#f2f2f2;}.cls-68{fill:#f3f3f3;}.cls-69{fill:#f4f4f4;}.cls-70{fill:#f5f5f5;}.cls-71{fill:#f6f6f6;}.cls-72{fill:#f7f7f7;}.cls-73{fill:#f8f8f8;}.cls-74{fill:#f9f9f9;}.cls-75{fill:#fafafa;}.cls-76{fill:#fbfbfb;}.cls-77{fill:#fcfcfc;}.cls-78{fill:#fdfdfd;}.cls-79{fill:#fefefe;}</style><clipPath id="clip-path" transform="translate(0.09 0.17)"><path class="cls-1" d="M109.84,122.32v-42a35.08,35.08,0,0,0,5.67-5.22c5.13-8.62,6.34-18.64,6-27.3A80.14,80.14,0,0,0,118,27H98.26s-9.53,27.92,2.5,48.12a35.08,35.08,0,0,0,5.67,5.22v42l-13.16,2H123Z"/></clipPath></defs><title>icon-nye</title><path class="cls-2" d="M110.84,123.32v-42a35.08,35.08,0,0,0,5.67-5.22c5.13-8.62,6.34-18.64,6-27.3A71.74,71.74,0,0,0,118,27l-8.75,1h-10s-9.53,27.92,2.5,48.12a35.08,35.08,0,0,0,5.67,5.22v42l-14.16,1,15.75,1h.23l13.75-1Z" transform="translate(0.09 0.17)"/><path class="cls-2" d="M209.5,209.33H5.67V5.5H209.5Zm-198.83-5H204.5V10.5H10.67Z" transform="translate(0.09 0.17)"/><path class="cls-3" d="M58.82,165.77H53.91L46.2,149.63l-.1,0v16.11H41.15V140.53h4.94l7.71,16.12.1,0V140.53h4.91Z" transform="translate(0.09 0.17)"/><path class="cls-3" d="M69.95,151.35h.1l4.21-10.82h5.36l-7.21,16.26v9H67.48v-9.29l-7.09-15.95h5.39Z" transform="translate(0.09 0.17)"/><path class="cls-3" d="M95.08,154.7H86.61v7.14h10v3.94H81.67V140.53H96.54v3.94H86.61v6.29h8.48Z" transform="translate(0.09 0.17)"/><path class="cls-3" d="M106.93,165.77V140.53h7.44a9.6,9.6,0,0,1,6.09,1.73,6.19,6.19,0,0,1,2.19,5.17,6.34,6.34,0,0,1-.8,3.2,4.92,4.92,0,0,1-2.39,2.09,4.48,4.48,0,0,1,2.95,2,6.87,6.87,0,0,1,1,3.66,7,7,0,0,1-2.07,5.5,8.56,8.56,0,0,1-5.94,1.87Zm4.94-14.58h2.72a3.16,3.16,0,0,0,2.31-.88,3.37,3.37,0,0,0,.81-2.42,3.53,3.53,0,0,0-.83-2.6,3.44,3.44,0,0,0-2.51-.83h-2.5Zm0,3.45v7.19h3.48a3,3,0,0,0,2.33-.87,3.78,3.78,0,0,0,.77-2.58,4.93,4.93,0,0,0-.66-2.77,2.37,2.37,0,0,0-2.12-1Z" transform="translate(0.09 0.17)"/><path class="cls-3" d="M135.44,165.77a8.58,8.58,0,0,1-.37-1,8.42,8.42,0,0,1-.25-1.13,5.88,5.88,0,0,1-1.69,1.83,4,4,0,0,1-2.31.68,4.8,4.8,0,0,1-3.72-1.53,5.8,5.8,0,0,1-1.4-4.07,5.34,5.34,0,0,1,1.78-4.28,7.91,7.91,0,0,1,5.28-1.53h1.86V153.2a3.77,3.77,0,0,0-.49-2.11,1.66,1.66,0,0,0-1.48-.74,1.43,1.43,0,0,0-1.25.59,3,3,0,0,0-.42,1.72l-4.77,0-.05-.1a5.14,5.14,0,0,1,1.81-4.16,7.17,7.17,0,0,1,5-1.72,6.7,6.7,0,0,1,4.76,1.71,6.33,6.33,0,0,1,1.83,4.86v7.59a16.35,16.35,0,0,0,.19,2.58,14.09,14.09,0,0,0,.59,2.36Zm-3.21-3.35a2.53,2.53,0,0,0,1.38-.4,3,3,0,0,0,1-1v-3.45h-1.86a1.79,1.79,0,0,0-1.63.78,3.58,3.58,0,0,0-.5,2,2.51,2.51,0,0,0,.43,1.53A1.38,1.38,0,0,0,132.24,162.43Z" transform="translate(0.09 0.17)"/><path class="cls-3" d="M150.84,160.87a1.82,1.82,0,0,0-.62-1.38,10.49,10.49,0,0,0-2.39-1.43,12.61,12.61,0,0,1-4.24-2.39,4.55,4.55,0,0,1-1.41-3.47,5.06,5.06,0,0,1,1.81-3.91,6.92,6.92,0,0,1,4.79-1.62,7.17,7.17,0,0,1,5,1.67,5.25,5.25,0,0,1,1.79,4.25l-.05.1h-4.75a3.22,3.22,0,0,0-.49-1.87,1.7,1.7,0,0,0-1.49-.69,1.87,1.87,0,0,0-1.35.54,1.85,1.85,0,0,0,0,2.64,11.18,11.18,0,0,0,2.41,1.4,11.67,11.67,0,0,1,4.37,2.38,5.13,5.13,0,0,1-.49,7.53,7.78,7.78,0,0,1-5,1.53,6.93,6.93,0,0,1-5.13-1.89,5.58,5.58,0,0,1-1.8-4.26l0-.1h4.51A3.05,3.05,0,0,0,147,162a2.46,2.46,0,0,0,1.82.66,2.13,2.13,0,0,0,1.51-.49A1.74,1.74,0,0,0,150.84,160.87Z" transform="translate(0.09 0.17)"/><path class="cls-3" d="M162.85,149.25a5.71,5.71,0,0,1,1.75-1.91,4,4,0,0,1,2.25-.68,4.56,4.56,0,0,1,3.92,2q1.42,2,1.42,6.13v11h-4.94v-11a6.73,6.73,0,0,0-.55-3.23,1.85,1.85,0,0,0-1.71-.9,2.46,2.46,0,0,0-1.23.3,2.83,2.83,0,0,0-.92.84v14h-4.92v-27h4.92Z" transform="translate(0.09 0.17)"/><path class="cls-3" d="M215.09,215H-.09V-.17H215.09ZM5.91,209H209.09V5.83H5.91Z" transform="translate(0.09 0.17)"/><g class="cls-4"><rect class="cls-5" x="88.82" y="27.17" width="4.54" height="97.37"/><rect class="cls-5" x="93.36" y="27.17" width="0.39" height="97.37"/><rect class="cls-6" x="93.75" y="27.17" width="0.39" height="97.37"/><rect class="cls-7" x="94.14" y="27.17" width="0.39" height="97.37"/><rect class="cls-8" x="94.53" y="27.17" width="0.39" height="97.37"/><rect class="cls-9" x="94.92" y="27.17" width="0.39" height="97.37"/><rect class="cls-10" x="95.31" y="27.17" width="0.39" height="97.37"/><rect class="cls-11" x="95.7" y="27.17" width="0.39" height="97.37"/><rect class="cls-12" x="96.09" y="27.17" width="0.39" height="97.37"/><rect class="cls-13" x="96.49" y="27.17" width="0.39" height="97.37"/><rect class="cls-14" x="96.88" y="27.17" width="0.39" height="97.37"/><rect class="cls-15" x="97.27" y="27.17" width="0.39" height="97.37"/><rect class="cls-16" x="97.66" y="27.17" width="0.39" height="97.37"/><rect class="cls-17" x="98.05" y="27.17" width="0.39" height="97.37"/><rect class="cls-18" x="98.44" y="27.17" width="0.39" height="97.37"/><rect class="cls-19" x="98.83" y="27.17" width="0.39" height="97.37"/><rect class="cls-20" x="99.22" y="27.17" width="0.39" height="97.37"/><rect class="cls-21" x="99.61" y="27.17" width="0.39" height="97.37"/><rect class="cls-22" x="100.01" y="27.17" width="0.39" height="97.37"/><rect class="cls-23" x="100.4" y="27.17" width="0.39" height="97.37"/><rect class="cls-24" x="100.79" y="27.17" width="0.39" height="97.37"/><rect class="cls-25" x="101.18" y="27.17" width="0.39" height="97.37"/><rect class="cls-26" x="101.57" y="27.17" width="0.39" height="97.37"/><rect class="cls-27" x="101.96" y="27.17" width="0.39" height="97.37"/><rect class="cls-28" x="102.35" y="27.17" width="0.39" height="97.37"/><rect class="cls-29" x="102.74" y="27.17" width="0.39" height="97.37"/><rect class="cls-30" x="103.14" y="27.17" width="0.39" height="97.37"/><rect class="cls-31" x="103.53" y="27.17" width="0.39" height="97.37"/><rect class="cls-32" x="103.92" y="27.17" width="0.39" height="97.37"/><rect class="cls-33" x="104.31" y="27.17" width="0.39" height="97.37"/><rect class="cls-34" x="104.7" y="27.17" width="0.39" height="97.37"/><rect class="cls-35" x="105.09" y="27.17" width="0.39" height="97.37"/><rect class="cls-36" x="105.48" y="27.17" width="0.39" height="97.37"/><rect class="cls-37" x="105.87" y="27.17" width="0.39" height="97.37"/><rect class="cls-38" x="106.27" y="27.17" width="0.39" height="97.37"/><rect class="cls-39" x="106.66" y="27.17" width="0.39" height="97.37"/><rect class="cls-40" x="107.05" y="27.17" width="0.39" height="97.37"/><rect class="cls-41" x="107.44" y="27.17" width="0.39" height="97.37"/><rect class="cls-42" x="107.83" y="27.17" width="0.39" height="97.37"/><rect class="cls-43" x="108.22" y="27.17" width="0.39" height="97.37"/><rect class="cls-44" x="108.61" y="27.17" width="0.39" height="97.37"/><rect class="cls-45" x="109" y="27.17" width="0.39" height="97.37"/><rect class="cls-46" x="109.4" y="27.17" width="0.39" height="97.37"/><rect class="cls-47" x="109.79" y="27.17" width="0.39" height="97.37"/><rect class="cls-48" x="110.18" y="27.17" width="0.39" height="97.37"/><rect class="cls-49" x="110.57" y="27.17" width="0.39" height="97.37"/><rect class="cls-50" x="110.96" y="27.17" width="0.39" height="97.37"/><rect class="cls-51" x="111.35" y="27.17" width="0.39" height="97.37"/><rect class="cls-52" x="111.74" y="27.17" width="0.39" height="97.37"/><rect class="cls-53" x="112.13" y="27.17" width="0.39" height="97.37"/><rect class="cls-54" x="112.52" y="27.17" width="0.39" height="97.37"/><rect class="cls-55" x="112.92" y="27.17" width="0.39" height="97.37"/><rect class="cls-56" x="113.31" y="27.17" width="0.39" height="97.37"/><rect class="cls-57" x="113.7" y="27.17" width="0.39" height="97.37"/><rect class="cls-58" x="114.09" y="27.17" width="0.39" height="97.37"/><rect class="cls-59" x="114.48" y="27.17" width="0.39" height="97.37"/><rect class="cls-60" x="114.87" y="27.17" width="0.39" height="97.37"/><rect class="cls-61" x="115.26" y="27.17" width="0.39" height="97.37"/><rect class="cls-62" x="115.65" y="27.17" width="0.39" height="97.37"/><rect class="cls-63" x="116.05" y="27.17" width="0.39" height="97.37"/><rect class="cls-64" x="116.44" y="27.17" width="0.39" height="97.37"/><rect class="cls-65" x="116.83" y="27.17" width="0.39" height="97.37"/><rect class="cls-66" x="117.22" y="27.17" width="0.39" height="97.37"/><rect class="cls-67" x="117.61" y="27.17" width="0.39" height="97.37"/><rect class="cls-68" x="118" y="27.17" width="0.39" height="97.37"/><rect class="cls-69" x="118.39" y="27.17" width="0.39" height="97.37"/><rect class="cls-70" x="118.78" y="27.17" width="0.39" height="97.37"/><rect class="cls-71" x="119.18" y="27.17" width="0.39" height="97.37"/><rect class="cls-72" x="119.57" y="27.17" width="0.39" height="97.37"/><rect class="cls-73" x="119.96" y="27.17" width="0.39" height="97.37"/><rect class="cls-74" x="120.35" y="27.17" width="0.39" height="97.37"/><rect class="cls-75" x="120.74" y="27.17" width="0.39" height="97.37"/><rect class="cls-76" x="121.13" y="27.17" width="0.39" height="97.37"/><rect class="cls-77" x="121.52" y="27.17" width="0.39" height="97.37"/><rect class="cls-78" x="121.91" y="27.17" width="0.39" height="97.37"/><rect class="cls-79" x="122.3" y="27.17" width="0.39" height="97.37"/><rect class="cls-2" x="122.7" y="27.17" width="0.39" height="97.37"/><path class="cls-2" d="M123,124.37v0Z" transform="translate(0.09 0.17)"/></g><path class="cls-3" d="M115.73,75.12l-.22.25L117.37,72C116.87,73.06,116.33,74.1,115.73,75.12Z" transform="translate(0.09 0.17)"/><path class="cls-3" d="M105.66,79.63A40.7,40.7,0,0,1,101,75.12C96.13,67,94.79,57.61,94.9,49.31,95.48,55,103.48,67,120.59,62.39A43.44,43.44,0,0,1,117.37,72l-1.86,3.36A39.05,39.05,0,0,1,111,79.65,14.86,14.86,0,0,1,105.66,79.63Z" transform="translate(0.09 0.17)"/><path class="cls-3" d="M121.54,47.56" transform="translate(0.09 0.17)"/><path class="cls-3" d="M95.44,47.72A15.78,15.78,0,0,1,96,42.92s.75-2.75,3.22-1.4S97.61,45,97.61,45,95.29,45.67,95.44,47.72Z" transform="translate(0.09 0.17)"/></svg>