<svg id="Layer_1" data-name="Layer 1" xmlns="http://www.w3.org/2000/svg" xmlns:xlink="http://www.w3.org/1999/xlink" viewBox="0 0 215.17 215.17"><defs><style>.cls-1{fill:#e2e2e2;}.cls-2{fill:none;}.cls-3{clip-path:url(#clip-path);}.cls-4{fill:#d8d8d8;}.cls-5{fill:#b22234;}.cls-6{clip-path:url(#clip-path-2);}.cls-7{fill:#fff;}.cls-8{fill:#3c3b6e;}</style><clipPath id="clip-path" transform="translate(0.04 0.17)"><polygon class="cls-1" points="109 24 125.82 62.8 161 61 133.68 86.35 140 121 112.73 99.44 80 121 91.79 86.35 63 62.8 99.65 62.8 109 24"/></clipPath><clipPath id="clip-path-2" transform="translate(0.04 0.17)"><polygon class="cls-2" points="108.73 24.15 121.82 60.8 161.09 60.8 129.68 84.35 140.15 121 108.73 97.44 79.94 121 87.79 84.35 59 60.8 95.65 60.8 108.73 24.15"/></clipPath></defs><title>icon-americrawl</title><polygon class="cls-1" points="109.04 24.18 125.87 62.97 161.04 61.17 133.72 86.53 140.04 121.17 112.78 99.62 80.04 121.17 91.84 86.53 63.04 62.97 99.69 62.97 109.04 24.18"/><g class="cls-3"><rect class="cls-1" x="112.39" y="25.94" width="83.77" height="11.05" transform="translate(-0.02 0.5) rotate(-0.12)"/><rect class="cls-1" x="112.41" y="36.36" width="83.77" height="11.05" transform="translate(-0.04 0.5) rotate(-0.12)"/><rect class="cls-1" x="112.4" y="47.39" width="83.77" height="11.05" transform="translate(-0.07 0.5) rotate(-0.12)"/><rect class="cls-1" x="112.38" y="57.81" width="83.8" height="11.05" transform="translate(-0.09 0.5) rotate(-0.12)"/><rect class="cls-1" x="63.02" y="68.88" width="133.13" height="11.05" transform="matrix(1, 0, 0, 1, -0.11, 0.45)"/><rect class="cls-1" x="63.05" y="79.31" width="133.13" height="11.05" transform="translate(-0.14 0.45) rotate(-0.12)"/><rect class="cls-1" x="63.01" y="90.33" width="133.13" height="11.05" transform="translate(-0.16 0.45) rotate(-0.12)"/><rect class="cls-1" x="63.01" y="111.77" width="133.13" height="11.05" transform="translate(-0.2 0.45) rotate(-0.12)"/><rect class="cls-1" x="63.03" y="100.75" width="133.13" height="11.05" transform="translate(-0.18 0.45) rotate(-0.12)"/><rect class="cls-1" x="62.45" y="22.18" width="49.98" height="47.39" transform="translate(-0.05 0.36) rotate(-0.12)"/></g><path class="cls-4" d="M209.5,209.33H5.67V5.5H209.5Zm-198.83-5H204.5V10.5H10.67Z" transform="translate(0.04 0.17)"/><path class="cls-5" d="M44.22,160.38H37.56l-1.35,5.39h-5l7.11-25.24h5.13l7.09,25.24h-5Zm-5.65-3.94h4.65l-2.27-8.93h-.1Z" transform="translate(0.04 0.17)"/><path class="cls-5" d="M56.82,147l.19,2.39a5.59,5.59,0,0,1,1.87-2,4.74,4.74,0,0,1,2.58-.71,4.16,4.16,0,0,1,2.48.75,4.65,4.65,0,0,1,1.61,2.3,5.88,5.88,0,0,1,1.87-2.25,4.56,4.56,0,0,1,2.67-.8,4.25,4.25,0,0,1,3.67,1.92q1.34,1.92,1.34,5.85v11.34H70.17V154.42a6.64,6.64,0,0,0-.47-3,1.56,1.56,0,0,0-1.46-.83A2.06,2.06,0,0,0,67,151a3.16,3.16,0,0,0-.92,1.15l0,.65q0,.32,0,.67v12.29H61.21V154.42a6.55,6.55,0,0,0-.48-3,1.59,1.59,0,0,0-1.48-.83,2.19,2.19,0,0,0-1.21.34,3,3,0,0,0-.91.95v13.89H52.23V147Z" transform="translate(0.04 0.17)"/><path class="cls-5" d="M85.64,166.14A7.16,7.16,0,0,1,80,163.81,8.45,8.45,0,0,1,77.94,158v-2.63a9.68,9.68,0,0,1,1.93-6.22,6.46,6.46,0,0,1,5.35-2.43,6.22,6.22,0,0,1,5.1,2.2,9.2,9.2,0,0,1,1.8,6v3H82.85V158a5.19,5.19,0,0,0,.84,3.05,2.9,2.9,0,0,0,2.54,1.2,6.78,6.78,0,0,0,2.25-.31,11.86,11.86,0,0,0,2.06-1L91.79,164a7.42,7.42,0,0,1-2.59,1.54A10.08,10.08,0,0,1,85.64,166.14Zm-.42-15.53a1.83,1.83,0,0,0-1.73,1.08,7,7,0,0,0-.62,2.91h4.42v-.7a5,5,0,0,0-.49-2.43A1.67,1.67,0,0,0,85.22,150.6Z" transform="translate(0.04 0.17)"/><path class="cls-5" d="M103.46,151.5l-1.85-.05a2.1,2.1,0,0,0-1.29.38,2.42,2.42,0,0,0-.79,1.07v12.86H94.6V147h4.59l.19,2.51.09,0a5.12,5.12,0,0,1,1.26-2.12,2.64,2.64,0,0,1,1.88-.77,4.32,4.32,0,0,1,.7.06,4.75,4.75,0,0,1,.65.15Z" transform="translate(0.04 0.17)"/><path class="cls-5" d="M111.1,142.49h-4.92v-3.76h4.92Zm0,23.28h-4.92V147h4.92Z" transform="translate(0.04 0.17)"/><path class="cls-5" d="M121.39,162.2a1.72,1.72,0,0,0,1.52-.75,3.79,3.79,0,0,0,.51-2.15h4.47l.05.1a6.34,6.34,0,0,1-6.55,6.73,6.82,6.82,0,0,1-5.59-2.37,9.36,9.36,0,0,1-2-6.14v-2.41a9.47,9.47,0,0,1,1.94-6.15,6.74,6.74,0,0,1,5.56-2.4,6.25,6.25,0,0,1,4.85,2,7.35,7.35,0,0,1,1.74,5.29l0,.09h-4.49a5.12,5.12,0,0,0-.51-2.47,1.66,1.66,0,0,0-1.55-.93,2,2,0,0,0-2,1.25,8.39,8.39,0,0,0-.55,3.35v2.41a8.29,8.29,0,0,0,.55,3.37A2.06,2.06,0,0,0,121.39,162.2Z" transform="translate(0.04 0.17)"/><path class="cls-5" d="M139.17,151.5l-1.85-.05a2.1,2.1,0,0,0-1.29.38,2.42,2.42,0,0,0-.79,1.07v12.86h-4.92V147h4.59l.19,2.51.09,0a5.12,5.12,0,0,1,1.26-2.12,2.64,2.64,0,0,1,1.88-.77,4.32,4.32,0,0,1,.7.06,4.75,4.75,0,0,1,.65.15Z" transform="translate(0.04 0.17)"/><path class="cls-5" d="M150.81,165.77a8.41,8.41,0,0,1-.37-1,8.27,8.27,0,0,1-.25-1.13,5.87,5.87,0,0,1-1.69,1.83,4,4,0,0,1-2.31.68,4.8,4.8,0,0,1-3.72-1.53,5.8,5.8,0,0,1-1.4-4.07,5.34,5.34,0,0,1,1.78-4.28,7.91,7.91,0,0,1,5.28-1.53H150V153.2a3.77,3.77,0,0,0-.49-2.11,1.67,1.67,0,0,0-1.48-.74,1.43,1.43,0,0,0-1.25.59,3,3,0,0,0-.42,1.72l-4.77,0-.05-.1a5.14,5.14,0,0,1,1.81-4.16,7.17,7.17,0,0,1,5-1.72,6.69,6.69,0,0,1,4.76,1.71,6.33,6.33,0,0,1,1.83,4.86v7.59a16.47,16.47,0,0,0,.19,2.58,14.09,14.09,0,0,0,.59,2.36Zm-3.21-3.35A2.53,2.53,0,0,0,149,162a3,3,0,0,0,1-1v-3.45h-1.85a1.79,1.79,0,0,0-1.63.78,3.58,3.58,0,0,0-.5,2,2.51,2.51,0,0,0,.43,1.53A1.38,1.38,0,0,0,147.6,162.43Z" transform="translate(0.04 0.17)"/><path class="cls-5" d="M171.73,157.66l.1,0L173.59,147h4.56l-3.85,18.76h-4.11l-2.62-10.11h-.1l-2.62,10.11h-4.11L156.86,147h4.59l1.75,10.68h.1L165.92,147h3.19Z" transform="translate(0.04 0.17)"/><path class="cls-5" d="M185.38,165.77h-4.92v-27h4.92Z" transform="translate(0.04 0.17)"/><path class="cls-5" d="M215.13,215H0V-.17H215.13ZM6,209H209.13V5.83H6Z" transform="translate(0.04 0.17)"/><g class="cls-6"><rect class="cls-5" x="108.39" y="23.94" width="83.77" height="11.05" transform="translate(-0.02 0.49) rotate(-0.12)"/><rect class="cls-7" x="108.41" y="34.36" width="83.77" height="11.05" transform="translate(-0.04 0.49) rotate(-0.12)"/><rect class="cls-5" x="108.4" y="45.39" width="83.77" height="11.05" transform="translate(-0.06 0.49) rotate(-0.12)"/><rect class="cls-7" x="108.38" y="55.81" width="83.8" height="11.05" transform="translate(-0.09 0.49) rotate(-0.12)"/><rect class="cls-5" x="59.02" y="66.88" width="133.13" height="11.05" transform="matrix(1, 0, 0, 1, -0.11, 0.44)"/><rect class="cls-7" x="59.05" y="77.31" width="133.13" height="11.05" transform="translate(-0.13 0.44) rotate(-0.12)"/><rect class="cls-5" x="59.01" y="88.33" width="133.13" height="11.05" transform="translate(-0.15 0.44) rotate(-0.12)"/><rect class="cls-5" x="59.01" y="109.77" width="133.13" height="11.05" transform="translate(-0.2 0.44) rotate(-0.12)"/><rect class="cls-7" x="59.03" y="98.75" width="133.13" height="11.05" transform="translate(-0.18 0.44) rotate(-0.12)"/><rect class="cls-8" x="58.45" y="20.18" width="49.98" height="47.39" transform="translate(-0.05 0.35) rotate(-0.12)"/></g></svg>