<svg id="Layer_1" data-name="Layer 1" xmlns="http://www.w3.org/2000/svg" viewBox="0 0 77.97 76.7"><defs><style>.cls-1{fill:#fff;}</style></defs><title>icon-white-halloween</title><path class="cls-1" d="M48.74,15.67s-.14-5.38-2.61-7.86L40.76,9.05s3.46,3.16,1.94,6.94l2.6,1.31Z" transform="translate(-7.18 -7.82)"/><path class="cls-1" d="M73.78,39.18c.41-29.64-27.54-22.93-28.45-22.71-.91-.23-28.86-6.93-28.45,22.71,0,0-2.47,25.16,28.45,19.81C76.25,64.34,73.78,39.18,73.78,39.18Zm-19.4-16.1,4.13,7.43H49.84Zm-8.1,7.55,3.14,5.66h-6.6Zm-8.41-7.55L42,30.51H33.33ZM58.5,46.61V44.13H54.38v4.54s-1.24.41-5,1.24V45.79h-5v4.13a21.16,21.16,0,0,1-6.6-1.24V45l-4.54-.83v2.48S27.55,42.9,25.07,33.4c0,0,2.06,6.6,21,7a28.52,28.52,0,0,0,20.64-6.19A17.89,17.89,0,0,1,58.5,46.61Z" transform="translate(-7.18 -7.82)"/><path class="cls-1" d="M17,84.32H14.25V78.53H9.91v5.79H7.18v-14H9.91v6h4.34v-6H17Z" transform="translate(-7.18 -7.82)"/><path class="cls-1" d="M24,84.32a4.83,4.83,0,0,1-.35-1.19,3.24,3.24,0,0,1-.94,1,2.21,2.21,0,0,1-1.28.38,2.65,2.65,0,0,1-2.06-.84,3.21,3.21,0,0,1-.77-2.25,3,3,0,0,1,1-2.37,4.38,4.38,0,0,1,2.92-.84h1v-.84a2.09,2.09,0,0,0-.27-1.17.92.92,0,0,0-.82-.41.79.79,0,0,0-.69.33,1.64,1.64,0,0,0-.23,1H18.86l0-.06a2.84,2.84,0,0,1,1-2.3,4,4,0,0,1,2.77-1,3.71,3.71,0,0,1,2.63.95,3.5,3.5,0,0,1,1,2.69v4.2A9.1,9.1,0,0,0,26.35,83a7.86,7.86,0,0,0,.33,1.31ZM22.2,82.46a1.4,1.4,0,0,0,.76-.22,1.64,1.64,0,0,0,.55-.57V79.77h-1a1,1,0,0,0-.9.43,2,2,0,0,0-.28,1.09,1.39,1.39,0,0,0,.24.84A.76.76,0,0,0,22.2,82.46Z" transform="translate(-7.18 -7.82)"/><path class="cls-1" d="M30.83,84.32H28.1v-15h2.73Z" transform="translate(-7.18 -7.82)"/><path class="cls-1" d="M35.58,84.32H32.85v-15h2.73Z" transform="translate(-7.18 -7.82)"/><path class="cls-1" d="M37.15,78.49a5.16,5.16,0,0,1,1.11-3.42,4.3,4.3,0,0,1,6.21,0,5.15,5.15,0,0,1,1.11,3.42v1.29a5.12,5.12,0,0,1-1.11,3.43,4.33,4.33,0,0,1-6.21,0,5.13,5.13,0,0,1-1.11-3.43Zm2.72,1.28a4.34,4.34,0,0,0,.34,1.88,1.2,1.2,0,0,0,1.17.68,1.18,1.18,0,0,0,1.15-.69,4.28,4.28,0,0,0,.34-1.88V78.49a4.29,4.29,0,0,0-.34-1.87,1.31,1.31,0,0,0-2.31,0,4.3,4.3,0,0,0-.34,1.87Z" transform="translate(-7.18 -7.82)"/><path class="cls-1" d="M54.61,79.83h.06l1-5.88h2.52L56,84.32H53.75l-1.45-5.6h-.06l-1.45,5.6H48.52L46.37,73.93h2.54l1,5.91h.06l1.45-5.91h1.77Z" transform="translate(-7.18 -7.82)"/><path class="cls-1" d="M63.35,84.52a4,4,0,0,1-3.11-1.29A4.68,4.68,0,0,1,59.09,80V78.53a5.36,5.36,0,0,1,1.07-3.45,3.58,3.58,0,0,1,3-1.34A3.44,3.44,0,0,1,65.94,75a5.09,5.09,0,0,1,1,3.32v1.67H61.8v0a2.87,2.87,0,0,0,.47,1.69,1.6,1.6,0,0,0,1.41.66,3.75,3.75,0,0,0,1.25-.17,6.48,6.48,0,0,0,1.14-.58l.69,1.74a4.13,4.13,0,0,1-1.43.85A5.59,5.59,0,0,1,63.35,84.52Zm-.23-8.6a1,1,0,0,0-1,.6,3.87,3.87,0,0,0-.35,1.61h2.45v-.39A2.77,2.77,0,0,0,64,76.4.93.93,0,0,0,63.12,75.92Z" transform="translate(-7.18 -7.82)"/><path class="cls-1" d="M72.35,84.52a4,4,0,0,1-3.11-1.29A4.68,4.68,0,0,1,68.09,80V78.53a5.36,5.36,0,0,1,1.07-3.45,3.58,3.58,0,0,1,3-1.34A3.44,3.44,0,0,1,74.94,75a5.09,5.09,0,0,1,1,3.32v1.67H70.81v0a2.87,2.87,0,0,0,.47,1.69,1.6,1.6,0,0,0,1.41.66,3.75,3.75,0,0,0,1.25-.17,6.48,6.48,0,0,0,1.14-.58l.69,1.74a4.13,4.13,0,0,1-1.43.85A5.59,5.59,0,0,1,72.35,84.52Zm-.23-8.6a1,1,0,0,0-1,.6,3.87,3.87,0,0,0-.35,1.61h2.45v-.39A2.77,2.77,0,0,0,73,76.4.93.93,0,0,0,72.12,75.92Z" transform="translate(-7.18 -7.82)"/><path class="cls-1" d="M79.81,73.93l.12,1.43A3.47,3.47,0,0,1,81,74.17a2.54,2.54,0,0,1,3.43.57,5.29,5.29,0,0,1,.74,3.14v6.44H82.42V77.87a2.79,2.79,0,0,0-.3-1.51,1.06,1.06,0,0,0-.94-.44,1.24,1.24,0,0,0-.67.19,1.63,1.63,0,0,0-.52.53v7.68H77.27V73.93Z" transform="translate(-7.18 -7.82)"/></svg>