<svg id="Layer_1" data-name="Layer 1" xmlns="http://www.w3.org/2000/svg" viewBox="0 0 215.17 215.17"><defs><style>.cls-1{fill:#fff;}.cls-2{fill:#055e3c;}.cls-3{fill:#04a96d;}</style></defs><title>icon-st-pats</title><path class="cls-1" d="M110.59,78.31l.09,0,0-.42Z" transform="translate(0 0.17)"/><path class="cls-2" d="M149.51,66.95c-8.71-7.35-20.11-4.07-28.18,0,7.53-6,15.76-15.24,11-25.09-8.11-16.68-21.08-2.32-21.08-2.32C94.3,24.25,88,42.55,88,42.55,85.88,52,91.47,59.69,97.7,65c-7.52-3-16.66-4.22-23.93,1.91,0,0-13.41,13.94,7.93,22,0,0-6.83,18.11,11.71,17.68,10.28-.24,14.87-10.44,16.91-19.49C110.61,108.77,99.4,116,99.4,116c7.64.93,10.42,5.1,10.42,5.1a87.66,87.66,0,0,0,4.28-29.71c2.46,7.72,7.08,15,15.76,15.23,18.54.43,11.71-17.68,11.71-17.68C162.91,80.89,149.51,66.95,149.51,66.95ZM111.59,79.31l0-.45,0,.42Z" transform="translate(0 0.17)"/><path class="cls-3" d="M146.51,63.95c-8.71-7.35-20.11-4.07-28.18,0,7.53-6,15.76-15.24,11-25.09-8.11-16.68-21.08-2.32-21.08-2.32C91.3,21.25,85,39.55,85,39.55,82.88,49,88.47,56.69,94.7,62c-7.52-3-16.66-4.22-23.93,1.91,0,0-13.41,13.94,7.93,22,0,0-6.83,18.11,11.71,17.68,10.28-.24,14.87-10.44,16.91-19.49C107.61,105.77,96.4,113,96.4,113c7.64.93,10.42,5.1,10.42,5.1a87.66,87.66,0,0,0,4.28-29.71c2.46,7.72,7.08,15,15.76,15.23,18.54.43,11.71-17.68,11.71-17.68C159.91,77.89,146.51,63.95,146.51,63.95ZM108.59,76.31l0-.45,0,.42Z" transform="translate(0 0.17)"/><path class="cls-3" d="M67.11,159.19a3.39,3.39,0,0,0-.76-2.33,7.77,7.77,0,0,0-2.69-1.69,17.78,17.78,0,0,1-5.9-3.11,6.18,6.18,0,0,1-2-4.88,6.33,6.33,0,0,1,2.29-5.05,8.69,8.69,0,0,1,5.84-2,8.09,8.09,0,0,1,5.86,2.18A7.09,7.09,0,0,1,72,147.83l0,.1H67.15a4.34,4.34,0,0,0-.87-2.81,3.36,3.36,0,0,0-4.74-.18,3.18,3.18,0,0,0-.82,2.25,2.61,2.61,0,0,0,.92,2.05A13,13,0,0,0,64.83,151a13.44,13.44,0,0,1,5.4,3.08,6.92,6.92,0,0,1,1.81,5,6.37,6.37,0,0,1-2.18,5.13A8.67,8.67,0,0,1,64,166.14,9.73,9.73,0,0,1,57.8,164a7.06,7.06,0,0,1-2.56-6l0-.1h4.8a4.74,4.74,0,0,0,1,3.36,4,4,0,0,0,3,1,3,3,0,0,0,2.31-.83A3.23,3.23,0,0,0,67.11,159.19Z" transform="translate(0 0.17)"/><path class="cls-3" d="M80.67,142.35V147h2.6v3.57h-2.6V160a3.06,3.06,0,0,0,.33,1.64,1,1,0,0,0,.9.49,5.78,5.78,0,0,0,.76,0,5.66,5.66,0,0,0,.69-.15l.38,3.74a9.77,9.77,0,0,1-1.49.35,11.22,11.22,0,0,1-1.61.1A4.52,4.52,0,0,1,77,164.67,7.07,7.07,0,0,1,75.75,160v-9.43H73.53V147h2.22v-4.66Z" transform="translate(0 0.17)"/><path class="cls-3" d="M99.08,156.71v9.07H94.14V140.53h8.77a8.1,8.1,0,1,1,0,16.17Zm0-3.94h3.83a2.78,2.78,0,0,0,2.41-1.16,5,5,0,0,0,.83-3,5.15,5.15,0,0,0-.82-3,2.75,2.75,0,0,0-2.42-1.19H99.08Z" transform="translate(0 0.17)"/><path class="cls-3" d="M122.85,165.77a8.41,8.41,0,0,1-.37-1,8.27,8.27,0,0,1-.25-1.13,5.87,5.87,0,0,1-1.69,1.83,4,4,0,0,1-2.31.68,4.8,4.8,0,0,1-3.72-1.53,5.8,5.8,0,0,1-1.4-4.07,5.34,5.34,0,0,1,1.78-4.28,7.91,7.91,0,0,1,5.28-1.53H122V153.2a3.77,3.77,0,0,0-.49-2.11,1.67,1.67,0,0,0-1.48-.74,1.43,1.43,0,0,0-1.25.59,3,3,0,0,0-.42,1.72l-4.77,0-.05-.1a5.14,5.14,0,0,1,1.81-4.16,7.17,7.17,0,0,1,5-1.72,6.69,6.69,0,0,1,4.76,1.71,6.33,6.33,0,0,1,1.83,4.86v7.59a16.47,16.47,0,0,0,.19,2.58,14.09,14.09,0,0,0,.59,2.36Zm-3.21-3.35A2.53,2.53,0,0,0,121,162a3,3,0,0,0,1-1v-3.45h-1.85a1.79,1.79,0,0,0-1.63.78,3.58,3.58,0,0,0-.5,2,2.51,2.51,0,0,0,.43,1.53A1.38,1.38,0,0,0,119.65,162.43Z" transform="translate(0 0.17)"/><path class="cls-3" d="M135.94,142.35V147h2.6v3.57h-2.6V160a3.06,3.06,0,0,0,.33,1.64,1,1,0,0,0,.9.49,5.78,5.78,0,0,0,.76,0,5.66,5.66,0,0,0,.69-.15l.38,3.74a9.77,9.77,0,0,1-1.49.35,11.22,11.22,0,0,1-1.61.1,4.52,4.52,0,0,1-3.63-1.46A7.07,7.07,0,0,1,131,160v-9.43H128.8V147H131v-4.66Z" transform="translate(0 0.17)"/><path class="cls-3" d="M145.48,142.06l-2.53,6h-2.37l.85-6v-3.33h4.06Z" transform="translate(0 0.17)"/><path class="cls-3" d="M154.44,160.87a1.82,1.82,0,0,0-.62-1.38,10.49,10.49,0,0,0-2.39-1.43,12.6,12.6,0,0,1-4.24-2.39,4.55,4.55,0,0,1-1.41-3.47,5.06,5.06,0,0,1,1.81-3.91,6.92,6.92,0,0,1,4.79-1.62,7.17,7.17,0,0,1,5,1.67,5.25,5.25,0,0,1,1.79,4.25l-.05.1h-4.75a3.21,3.21,0,0,0-.49-1.87,1.7,1.7,0,0,0-1.49-.69,1.87,1.87,0,0,0-1.35.54,1.85,1.85,0,0,0,0,2.64,11.19,11.19,0,0,0,2.41,1.4,11.67,11.67,0,0,1,4.37,2.38,5.13,5.13,0,0,1-.49,7.53,7.78,7.78,0,0,1-5,1.53,6.93,6.93,0,0,1-5.13-1.89,5.58,5.58,0,0,1-1.8-4.26l0-.1h4.51a3.06,3.06,0,0,0,.69,2.15,2.46,2.46,0,0,0,1.82.66,2.13,2.13,0,0,0,1.51-.49A1.74,1.74,0,0,0,154.44,160.87Z" transform="translate(0 0.17)"/><path class="cls-3" d="M215.17,215H0V-.17H215.17ZM6,209H209.17V5.83H6Z" transform="translate(0 0.17)"/><path class="cls-2" d="M209.5,209.33H5.67V5.5H209.5Zm-198.83-5H204.5V10.5H10.67Z" transform="translate(0 0.17)"/></svg>