<?xml version="1.0" encoding="utf-8"?>
<!-- Generator: Adobe Illustrator 21.0.0, SVG Export Plug-In . SVG Version: 6.00 Build 0)  -->
<svg version="1.1" id="Layer_1" xmlns="http://www.w3.org/2000/svg" xmlns:xlink="http://www.w3.org/1999/xlink" x="0px" y="0px"
	 viewBox="0 0 25.7 71.2" style="enable-background:new 0 0 25.7 71.2;" xml:space="preserve">
<style type="text/css">
	.st0{enable-background:new    ;}
	.st1{fill:#FFFFFF;}
</style>
<title>more-dots</title>
<g class="st0">
	<path class="st1" d="M12.9,22.8c-2.7,0-5-0.9-6.8-2.8c-1.9-1.9-2.8-4.2-2.8-6.8s0.9-5,2.8-6.8c1.9-1.9,4.2-2.8,6.8-2.8
		c2.7,0,5,0.9,6.8,2.8c1.9,1.9,2.8,4.2,2.8,6.8s-0.9,5-2.8,6.8C17.8,21.9,15.5,22.8,12.9,22.8z M12.9,27.1c2.7,0,5,0.9,6.8,2.8
		c1.9,1.9,2.8,4.2,2.8,6.8s-0.9,5-2.8,6.8c-1.9,1.9-4.2,2.8-6.8,2.8c-2.7,0-5-0.9-6.8-2.8c-1.9-1.9-2.8-4.2-2.8-6.8s0.9-5,2.8-6.8
		C7.9,28,10.2,27.1,12.9,27.1z M12.9,50.7c2.7,0,5,0.9,6.8,2.8c1.9,1.9,2.8,4.2,2.8,6.8s-0.9,5-2.8,6.8C17.8,69,15.5,70,12.9,70
		c-2.7,0-5-0.9-6.8-2.8c-1.9-1.9-2.8-4.2-2.8-6.8s0.9-5,2.8-6.8C7.9,51.6,10.2,50.7,12.9,50.7z M12.9,10c-0.9,0-1.7,0.3-2.3,0.9
		s-0.9,1.4-0.9,2.3s0.3,1.7,0.9,2.3s1.4,0.9,2.3,0.9s1.7-0.3,2.3-0.9s0.9-1.4,0.9-2.3s-0.3-1.7-0.9-2.3S13.7,10,12.9,10z M12.9,40
		c0.9,0,1.7-0.3,2.3-0.9s0.9-1.4,0.9-2.3s-0.3-1.7-0.9-2.3s-1.4-0.9-2.3-0.9s-1.7,0.3-2.3,0.9s-0.9,1.4-0.9,2.3s0.3,1.7,0.9,2.3
		S12,40,12.9,40z M12.9,63.5c0.9,0,1.7-0.3,2.3-0.9s0.9-1.4,0.9-2.3s-0.3-1.7-0.9-2.3s-1.4-0.9-2.3-0.9s-1.7,0.3-2.3,0.9
		s-0.9,1.4-0.9,2.3s0.3,1.7,0.9,2.3S12,63.5,12.9,63.5z"/>
</g>
</svg>
