<?xml version="1.0" encoding="utf-8"?>
<!-- Generator: Adobe Illustrator 21.0.0, SVG Export Plug-In . SVG Version: 6.00 Build 0)  -->
<svg version="1.1" id="Layer_1" xmlns="http://www.w3.org/2000/svg" xmlns:xlink="http://www.w3.org/1999/xlink" x="0px" y="0px"
	 viewBox="0 0 47 49" style="enable-background:new 0 0 47 49;" xml:space="preserve">
<g>
	<path class="st0" d="M34.625,27.678c2.202,0,4.076,0.774,5.625,2.322c1.548,1.549,2.321,3.424,2.321,5.625
		s-0.773,4.076-2.321,5.625c-1.549,1.547-3.423,2.321-5.625,2.321s-4.077-0.774-5.624-2.321c-1.549-1.549-2.322-3.424-2.322-5.625
		c0-0.199,0.017-0.48,0.05-0.845l-8.939-4.47c-1.523,1.424-3.328,2.136-5.414,2.136c-2.202,0-4.077-0.774-5.624-2.321
		c-1.549-1.549-2.322-3.424-2.322-5.625c0-2.201,0.773-4.076,2.322-5.625c1.547-1.548,3.422-2.322,5.624-2.322
		c2.086,0,3.891,0.712,5.414,2.136l8.939-4.47c-0.033-0.364-0.05-0.646-0.05-0.845c0-2.201,0.773-4.076,2.322-5.625
		c1.547-1.548,3.422-2.322,5.624-2.322s4.076,0.774,5.625,2.322c1.548,1.548,2.321,3.423,2.321,5.625
		c0,2.202-0.773,4.077-2.321,5.625c-1.549,1.548-3.423,2.322-5.625,2.322c-2.086,0-3.891-0.712-5.413-2.136l-8.94,4.47
		c0.033,0.364,0.05,0.646,0.05,0.844c0,0.199-0.017,0.48-0.05,0.845l8.94,4.47C30.734,28.391,32.539,27.678,34.625,27.678z"/>
</g>
</svg>
